<svg xmlns="http://www.w3.org/2000/svg" width="454" height="454" viewBox="0 0 454 454">
  <path id="square_white" d="M-1597,454h-332a60.618,60.618,0,0,1-23.744-4.794,60.8,60.8,0,0,1-19.39-13.073,60.8,60.8,0,0,1-13.073-19.389A60.617,60.617,0,0,1-1990,393V61a60.619,60.619,0,0,1,4.794-23.744,60.8,60.8,0,0,1,13.073-19.39,60.8,60.8,0,0,1,19.39-13.073A60.618,60.618,0,0,1-1929,0h332a60.616,60.616,0,0,1,23.744,4.794,60.8,60.8,0,0,1,19.389,13.073,60.8,60.8,0,0,1,13.073,19.39A60.62,60.62,0,0,1-1536,61V393a60.618,60.618,0,0,1-4.794,23.744,60.8,60.8,0,0,1-13.073,19.389,60.8,60.8,0,0,1-19.389,13.073A60.616,60.616,0,0,1-1597,454ZM-1858.75,257a19.712,19.712,0,0,0-18.418,12.2,19.712,19.712,0,0,0,4.059,21.718l96.25,99.269a19.839,19.839,0,0,0,14.359,6.078,19.839,19.839,0,0,0,14.359-6.078l96.25-99.269a19.712,19.712,0,0,0,4.06-21.718,19.713,19.713,0,0,0-18.418-12.2Zm96.25-199.087a19.827,19.827,0,0,0-14.443,6.165l-123.648,129.087a19.721,19.721,0,0,0-3.951,21.686A19.721,19.721,0,0,0-1886.148,227h247.3a19.721,19.721,0,0,0,18.394-12.148,19.721,19.721,0,0,0-3.951-21.687L-1748.057,64.079A19.826,19.826,0,0,0-1762.5,57.914Z" transform="translate(1990 0)" fill="#fafafa"/>
</svg>
